HIERARCHY
ROOT mixamorig:Hips
{
	OFFSET -0.000008 104.274872 1.554316
	CHANNELS 6 Xposition Yposition Zposition Xrotation Yrotation Zrotation
	JOINT mixamorig:Spine
	{
		OFFSET -0.000005 10.181595 0.131519
		CHANNELS 6 Xposition Yposition Zposition Xrotation Yrotation Zrotation
		JOINT mixamorig:Spine1
		{
			OFFSET -0.000000 9.893959 -1.470707
			CHANNELS 6 Xposition Yposition Zposition Xrotation Yrotation Zrotation
			JOINT mixamorig:Spine2
			{
				OFFSET -0.000000 9.220757 -1.370641
				CHANNELS 6 Xposition Yposition Zposition Xrotation Yrotation Zrotation
				JOINT mixamorig:Neck
				{
					OFFSET 0.000001 16.740417 -2.049036
					CHANNELS 6 Xposition Yposition Zposition Xrotation Yrotation Zrotation
					JOINT mixamorig:Head
					{
						OFFSET 0.000000 9.617874 1.685006
						CHANNELS 6 Xposition Yposition Zposition Xrotation Yrotation Zrotation
						JOINT mixamorig:HeadTop_End
						{
							OFFSET 0.000002 22.037354 7.501101
							CHANNELS 6 Xposition Yposition Zposition Xrotation Yrotation Zrotation
							End Site
							{
								OFFSET 0.000168 2310.654297 -282.823242
							}
						}
					}
				}
				JOINT mixamorig:RightShoulder
				{
					OFFSET -4.569970 11.014908 -2.160885
					CHANNELS 6 Xposition Yposition Zposition Xrotation Yrotation Zrotation
					JOINT mixamorig:RightArm
					{
						OFFSET -10.592851 -0.524811 -2.232101
						CHANNELS 6 Xposition Yposition Zposition Xrotation Yrotation Zrotation
						JOINT mixamorig:RightForeArm
						{
							OFFSET -27.841511 0.000031 -0.000004
							CHANNELS 6 Xposition Yposition Zposition Xrotation Yrotation Zrotation
							JOINT mixamorig:RightHand
							{
								OFFSET -28.328831 -0.000015 0.000015
								CHANNELS 6 Xposition Yposition Zposition Xrotation Yrotation Zrotation
								JOINT mixamorig:RightHandThumb1
								{
									OFFSET -2.464806 -1.573990 2.681852
									CHANNELS 6 Xposition Yposition Zposition Xrotation Yrotation Zrotation
									JOINT mixamorig:RightHandThumb2
									{
										OFFSET -3.215179 -1.872803 1.924282
										CHANNELS 6 Xposition Yposition Zposition Xrotation Yrotation Zrotation
										JOINT mixamorig:RightHandThumb3
										{
											OFFSET -2.654831 -1.527969 1.512609
											CHANNELS 6 Xposition Yposition Zposition Xrotation Yrotation Zrotation
											JOINT mixamorig:RightHandThumb4
											{
												OFFSET -2.018814 -1.152008 1.108052
												CHANNELS 6 Xposition Yposition Zposition Xrotation Yrotation Zrotation
												End Site
												{
													OFFSET -188.809540 -114.533607 132.431396
												}
											}
										}
									}
								}
								JOINT mixamorig:RightHandIndex1
								{
									OFFSET -9.108284 -0.517868 2.259835
									CHANNELS 6 Xposition Yposition Zposition Xrotation Yrotation Zrotation
									JOINT mixamorig:RightHandIndex2
									{
										OFFSET -3.699989 0.000000 0.001215
										CHANNELS 6 Xposition Yposition Zposition Xrotation Yrotation Zrotation
										JOINT mixamorig:RightHandIndex3
										{
											OFFSET -2.850006 0.000031 -0.000522
											CHANNELS 6 Xposition Yposition Zposition Xrotation Yrotation Zrotation
											JOINT mixamorig:RightHandIndex4
											{
												OFFSET -2.772186 -0.000015 -0.000020
												CHANNELS 6 Xposition Yposition Zposition Xrotation Yrotation Zrotation
												End Site
												{
													OFFSET -277.218445 0.000000 -0.050231
												}
											}
										}
									}
								}
								JOINT mixamorig:RightHandMiddle1
								{
									OFFSET -9.532516 -0.000031 -0.000023
									CHANNELS 6 Xposition Yposition Zposition Xrotation Yrotation Zrotation
									JOINT mixamorig:RightHandMiddle2
									{
										OFFSET -3.700005 -0.000015 0.003713
										CHANNELS 6 Xposition Yposition Zposition Xrotation Yrotation Zrotation
										JOINT mixamorig:RightHandMiddle3
										{
											OFFSET -2.949974 0.000015 -0.002054
											CHANNELS 6 Xposition Yposition Zposition Xrotation Yrotation Zrotation
											JOINT mixamorig:RightHandMiddle4
											{
												OFFSET -2.946640 0.000000 -0.000156
												CHANNELS 6 Xposition Yposition Zposition Xrotation Yrotation Zrotation
												End Site
												{
													OFFSET -294.664337 0.000000 -0.113670
												}
											}
										}
									}
								}
								JOINT mixamorig:RightHandRing1
								{
									OFFSET -9.103600 -0.043076 -1.865134
									CHANNELS 6 Xposition Yposition Zposition Xrotation Yrotation Zrotation
									JOINT mixamorig:RightHandRing2
									{
										OFFSET -3.379288 0.000000 -0.001055
										CHANNELS 6 Xposition Yposition Zposition Xrotation Yrotation Zrotation
										JOINT mixamorig:RightHandRing3
										{
											OFFSET -2.889687 -0.000015 0.000379
											CHANNELS 6 Xposition Yposition Zposition Xrotation Yrotation Zrotation
											JOINT mixamorig:RightHandRing4
											{
												OFFSET -2.638809 -0.000015 0.000941
												CHANNELS 6 Xposition Yposition Zposition Xrotation Yrotation Zrotation
												End Site
												{
													OFFSET -263.880371 0.000000 0.516020
												}
											}
										}
									}
								}
								JOINT mixamorig:RightHandPinky1
								{
									OFFSET -8.076683 -0.486710 -3.806280
									CHANNELS 6 Xposition Yposition Zposition Xrotation Yrotation Zrotation
									JOINT mixamorig:RightHandPinky2
									{
										OFFSET -3.600014 -0.000015 -0.003747
										CHANNELS 6 Xposition Yposition Zposition Xrotation Yrotation Zrotation
										JOINT mixamorig:RightHandPinky3
										{
											OFFSET -2.099983 0.000000 -0.005739
											CHANNELS 6 Xposition Yposition Zposition Xrotation Yrotation Zrotation
											JOINT mixamorig:RightHandPinky4
											{
												OFFSET -2.115768 -0.000031 -0.003680
												CHANNELS 6 Xposition Yposition Zposition Xrotation Yrotation Zrotation
												End Site
												{
													OFFSET -211.577087 0.000000 -0.350686
												}
											}
										}
									}
								}
							}
						}
					}
				}
				JOINT mixamorig:LeftShoulder
				{
					OFFSET 4.570447 11.014725 -2.160855
					CHANNELS 6 Xposition Yposition Zposition Xrotation Yrotation Zrotation
					JOINT mixamorig:LeftArm
					{
						OFFSET 10.592371 -0.524597 -2.232119
						CHANNELS 6 Xposition Yposition Zposition Xrotation Yrotation Zrotation
						JOINT mixamorig:LeftForeArm
						{
							OFFSET 27.841532 -0.000031 0.000026
							CHANNELS 6 Xposition Yposition Zposition Xrotation Yrotation Zrotation
							JOINT mixamorig:LeftHand
							{
								OFFSET 28.328846 -0.000061 0.000022
								CHANNELS 6 Xposition Yposition Zposition Xrotation Yrotation Zrotation
								JOINT mixamorig:LeftHandThumb1
								{
									OFFSET 2.466141 -1.576172 2.681732
									CHANNELS 6 Xposition Yposition Zposition Xrotation Yrotation Zrotation
									JOINT mixamorig:LeftHandThumb2
									{
										OFFSET 3.217812 -1.872070 1.916482
										CHANNELS 6 Xposition Yposition Zposition Xrotation Yrotation Zrotation
										JOINT mixamorig:LeftHandThumb3
										{
											OFFSET 2.656029 -1.528778 1.514513
											CHANNELS 6 Xposition Yposition Zposition Xrotation Yrotation Zrotation
											JOINT mixamorig:LeftHandThumb4
											{
												OFFSET 2.020889 -1.154053 1.115139
												CHANNELS 6 Xposition Yposition Zposition Xrotation Yrotation Zrotation
												End Site
												{
													OFFSET 190.885437 -115.081749 130.048782
												}
											}
										}
									}
								}
								JOINT mixamorig:LeftHandIndex1
								{
									OFFSET 9.109314 -0.518021 2.259871
									CHANNELS 6 Xposition Yposition Zposition Xrotation Yrotation Zrotation
									JOINT mixamorig:LeftHandIndex2
									{
										OFFSET 3.699989 0.000000 -0.000322
										CHANNELS 6 Xposition Yposition Zposition Xrotation Yrotation Zrotation
										JOINT mixamorig:LeftHandIndex3
										{
											OFFSET 2.850006 0.000000 0.000352
											CHANNELS 6 Xposition Yposition Zposition Xrotation Yrotation Zrotation
											JOINT mixamorig:LeftHandIndex4
											{
												OFFSET 2.774864 -0.000031 -0.000027
												CHANNELS 6 Xposition Yposition Zposition Xrotation Yrotation Zrotation
												End Site
												{
													OFFSET 277.486267 0.000000 -0.009857
												}
											}
										}
									}
								}
								JOINT mixamorig:LeftHandMiddle1
								{
									OFFSET 9.533394 0.000061 0.000044
									CHANNELS 6 Xposition Yposition Zposition Xrotation Yrotation Zrotation
									JOINT mixamorig:LeftHandMiddle2
									{
										OFFSET 3.699989 -0.000015 -0.000231
										CHANNELS 6 Xposition Yposition Zposition Xrotation Yrotation Zrotation
										JOINT mixamorig:LeftHandMiddle3
										{
											OFFSET 2.949997 -0.000015 -0.000059
											CHANNELS 6 Xposition Yposition Zposition Xrotation Yrotation Zrotation
											JOINT mixamorig:LeftHandMiddle4
											{
												OFFSET 2.952896 0.000031 0.000063
												CHANNELS 6 Xposition Yposition Zposition Xrotation Yrotation Zrotation
												End Site
												{
													OFFSET 295.289337 0.000000 0.022810
												}
											}
										}
									}
								}
								JOINT mixamorig:LeftHandRing1
								{
									OFFSET 9.104523 -0.042999 -1.865074
									CHANNELS 6 Xposition Yposition Zposition Xrotation Yrotation Zrotation
									JOINT mixamorig:LeftHandRing2
									{
										OFFSET 3.150009 -0.000031 0.000043
										CHANNELS 6 Xposition Yposition Zposition Xrotation Yrotation Zrotation
										JOINT mixamorig:LeftHandRing3
										{
											OFFSET 2.949982 -0.000015 0.000040
											CHANNELS 6 Xposition Yposition Zposition Xrotation Yrotation Zrotation
											JOINT mixamorig:LeftHandRing4
											{
												OFFSET 2.644348 0.000000 0.000057
												CHANNELS 6 Xposition Yposition Zposition Xrotation Yrotation Zrotation
												End Site
												{
													OFFSET 264.434631 0.000000 0.012105
												}
											}
										}
									}
								}
								JOINT mixamorig:LeftHandPinky1
								{
									OFFSET 8.077789 -0.486847 -3.806259
									CHANNELS 6 Xposition Yposition Zposition Xrotation Yrotation Zrotation
									JOINT mixamorig:LeftHandPinky2
									{
										OFFSET 3.599953 0.000031 0.014727
										CHANNELS 6 Xposition Yposition Zposition Xrotation Yrotation Zrotation
										JOINT mixamorig:LeftHandPinky3
										{
											OFFSET 2.100021 0.000015 0.007705
											CHANNELS 6 Xposition Yposition Zposition Xrotation Yrotation Zrotation
											JOINT mixamorig:LeftHandPinky4
											{
												OFFSET 2.125504 0.000031 0.007517
												CHANNELS 6 Xposition Yposition Zposition Xrotation Yrotation Zrotation
												End Site
												{
													OFFSET 212.550781 0.000000 0.625752
												}
											}
										}
									}
								}
							}
						}
					}
				}
			}
		}
	}
	JOINT mixamorig:RightUpLeg
	{
		OFFSET -8.207787 -6.751648 -1.599560
		CHANNELS 6 Xposition Yposition Zposition Xrotation Yrotation Zrotation
		JOINT mixamorig:RightLeg
		{
			OFFSET -0.000002 -44.370117 0.345942
			CHANNELS 6 Xposition Yposition Zposition Xrotation Yrotation Zrotation
			JOINT mixamorig:RightFoot
			{
				OFFSET 0.000003 -44.423679 -3.043532
				CHANNELS 6 Xposition Yposition Zposition Xrotation Yrotation Zrotation
				JOINT mixamorig:RightToeBase
				{
					OFFSET -0.000002 -8.728671 10.710558
					CHANNELS 6 Xposition Yposition Zposition Xrotation Yrotation Zrotation
					JOINT mixamorig:RightToe_End
					{
						OFFSET -0.000001 -0.000679 9.278119
						CHANNELS 6 Xposition Yposition Zposition Xrotation Yrotation Zrotation
						End Site
						{
							OFFSET 0.000000 -0.067690 927.812134
						}
					}
				}
			}
		}
	}
	JOINT mixamorig:LeftUpLeg
	{
		OFFSET 8.207793 -6.751686 -1.599556
		CHANNELS 6 Xposition Yposition Zposition Xrotation Yrotation Zrotation
		JOINT mixamorig:LeftLeg
		{
			OFFSET -0.000004 -44.370014 0.346954
			CHANNELS 6 Xposition Yposition Zposition Xrotation Yrotation Zrotation
			JOINT mixamorig:LeftFoot
			{
				OFFSET -0.000001 -44.423672 -3.044401
				CHANNELS 6 Xposition Yposition Zposition Xrotation Yrotation Zrotation
				JOINT mixamorig:LeftToeBase
				{
					OFFSET -0.000002 -8.728669 10.710558
					CHANNELS 6 Xposition Yposition Zposition Xrotation Yrotation Zrotation
					JOINT mixamorig:LeftToe_End
					{
						OFFSET -0.000003 -0.000679 9.278133
						CHANNELS 6 Xposition Yposition Zposition Xrotation Yrotation Zrotation
						End Site
						{
							OFFSET 0.000000 -0.068021 927.813477
						}
					}
				}
			}
		}
	}
}
MOTION
Frames: 3
Frame Time: 0.033333
0.000006 104.270477 1.554256 0.000010 0.000003 -0.000113 -0.000005 10.181587 0.131522 0.000001 -0.000003 0.000084 -0.000000 9.893967 -1.470711 0.000001 0.000000 -0.000000 -0.000000 9.220802 -1.370642 0.000000 -0.000000 -0.000000 0.000001 16.740433 -2.049030 0.000000 -0.000000 -0.000000 0.000000 9.617859 1.685014 0.000000 0.000000 0.000000 0.000002 22.037384 7.501101 0.000000 -0.000000 0.000000 -4.569968 11.014880 -2.160881 0.000008 0.000001 -0.000038 -10.592879 -0.524723 -2.231951 75.898025 18.736273 -14.662630 -27.841547 0.000025 0.000537 -61.363342 112.208848 82.895807 -28.328821 0.000021 0.000026 -0.000317 -0.000046 0.000007 -2.464433 -1.573899 2.682378 -33.206747 -156.838014 22.308161 -3.215277 -1.872594 1.924667 157.931623 31.842202 2.803855 -2.654936 -1.527925 1.513108 150.892075 25.254251 -43.907533 -2.018826 -1.152013 1.108056 0.000001 0.000000 0.000002 -9.108395 -0.517566 2.260128 102.508736 16.805306 -20.918277 -3.700082 0.000326 0.001513 95.622751 14.771990 -16.251894 -2.850084 0.000360 -0.000279 93.277018 11.831395 -12.521826 -2.772154 -0.000012 -0.000016 0.000001 0.000000 -0.000001 -9.532597 0.000272 0.000218 89.662215 13.736198 -13.794514 -3.700047 0.000327 0.003955 89.395428 11.100609 -10.892186 -2.950061 0.000331 -0.001840 86.495385 10.732958 -10.092521 -2.946623 0.000001 -0.000154 0.000004 0.000000 -0.000001 -9.103704 -0.042757 -1.864908 88.529046 14.833388 -14.418803 -3.379319 0.000326 -0.000824 90.755852 8.812201 -8.946144 -2.889754 0.000347 0.000593 90.499692 6.080790 -6.179332 -2.638808 -0.000016 0.000936 0.000002 -0.000001 -0.000001 -8.076748 -0.486395 -3.806052 84.670925 14.070938 -12.696762 -3.600040 0.000285 -0.003540 88.261159 6.316854 -5.793644 -2.100024 0.000324 -0.005521 87.345395 3.631461 -3.263741 -2.115758 -0.000058 -0.003680 -0.000005 -0.000002 -0.000004 4.570446 11.014691 -2.160851 -0.000018 0.000010 -0.000021 10.592372 -0.524500 -2.232315 73.262740 -1.061487 0.789329 27.841814 0.000078 -0.000189 92.431700 -68.766966 71.051323 28.328840 -0.000029 0.000019 0.000022 -0.000089 -0.000000 2.466254 -1.575956 2.681813 -159.961145 1.644510 55.935578 3.217825 -1.871720 1.916410 170.046971 -28.325643 14.691245 2.656112 -1.528694 1.514491 140.641737 -26.894792 61.058708 2.020887 -1.154050 1.115145 0.000002 0.000002 0.000004 9.109374 -0.517884 2.259729 81.565805 -20.261589 17.514111 3.700056 0.000113 -0.000453 80.245393 -20.548083 17.386235 2.850056 0.000167 0.000218 78.316144 -17.321228 14.140810 2.774887 -0.000025 -0.000034 -0.000002 0.000003 -0.000003 9.533447 0.000187 -0.000072 76.822102 -19.431603 15.454906 3.700033 0.000159 -0.000361 81.635070 -18.318014 15.853185 2.950070 0.000143 -0.000185 81.954361 -20.233291 17.621929 2.952873 -0.000037 0.000061 -0.000001 0.000002 -0.000000 9.104558 -0.042880 -1.865204 74.373083 -18.719429 14.257131 3.150053 0.000168 -0.000090 80.892881 -15.450648 13.194555 2.950035 0.000134 -0.000063 84.379747 -15.825468 14.362479 2.644325 0.000050 0.000057 -0.000000 0.000000 0.000000 8.077809 -0.486766 -3.806403 67.013103 -18.805430 12.923468 3.599982 0.000137 0.014577 69.916453 -15.807028 11.460434 2.100046 0.000156 0.007546 74.087745 -14.681307 11.486629 2.125490 -0.000018 0.007517 0.000000 -0.000003 -0.000000 -8.207786 -6.751667 -1.599560 -0.077001 -0.000003 0.000080 -0.000002 -44.370110 0.345938 0.153719 -0.000000 -0.000000 0.000000 -44.423679 -3.043532 -0.076700 0.000000 -0.000002 -0.000006 -8.728667 10.710559 -0.000009 -0.000000 -0.000000 -0.000001 -0.000679 9.278123 0.000000 -0.000000 -0.000000 8.207792 -6.751710 -1.599556 -0.074518 -0.000003 0.000081 -0.000002 -44.370014 0.346960 0.148822 0.000002 0.000000 -0.000001 -44.423664 -3.044403 -0.074314 0.000000 -0.000002 -0.000004 -8.728671 10.710558 0.000007 -0.000000 -0.000000 0.000000 -0.000680 9.278137 -0.000000 0.000000 -0.000001 
0.000006 104.270477 1.554256 0.000010 0.000003 -0.000113 -0.000005 10.181587 0.131522 0.000001 -0.000003 0.000084 -0.000000 9.893967 -1.470711 0.000001 0.000000 -0.000000 -0.000000 9.220802 -1.370642 0.000000 -0.000000 -0.000000 0.000001 16.740433 -2.049030 0.000000 -0.000000 -0.000000 0.000000 9.617859 1.685014 0.000000 0.000000 0.000000 0.000002 22.037384 7.501101 0.000000 -0.000000 0.000000 -4.569968 11.014880 -2.160881 0.000008 0.000001 -0.000038 -10.592872 -0.524770 -2.231905 76.414756 29.562473 -23.466285 -27.841534 0.000016 0.000552 -59.614233 107.577925 76.080029 -28.328823 0.000004 0.000025 -0.000323 -0.000045 0.000008 -2.464432 -1.573791 2.682345 -44.761324 -163.536053 -1.862342 -3.215286 -1.872601 1.924635 154.337550 32.230870 7.904652 -2.654939 -1.527877 1.513072 147.211217 27.075324 -35.129756 -2.018831 -1.152016 1.108062 0.000002 -0.000008 0.000001 -9.108376 -0.517561 2.260123 99.303608 15.572877 -18.342789 -3.700069 0.000324 0.001521 96.260854 12.720337 -14.151973 -2.850079 0.000377 -0.000266 94.250477 9.988386 -10.752948 -2.772179 -0.000013 -0.000021 0.000001 0.000001 0.000000 -9.532587 0.000279 0.000212 89.448116 14.843652 -14.842303 -3.700069 0.000329 0.003939 89.090706 11.003845 -10.739585 -2.950046 0.000334 -0.001810 90.024933 10.598708 -10.596280 -2.946635 0.000003 -0.000157 0.000001 0.000001 0.000001 -9.103716 -0.042762 -1.864891 87.327192 17.073992 -16.263543 -3.379303 0.000323 -0.000846 88.666319 8.131094 -7.961226 -2.889750 0.000349 0.000622 93.902493 5.104465 -5.511506 -2.638817 -0.000018 0.000938 0.000002 -0.000000 -0.000003 -8.076742 -0.486379 -3.806045 82.415310 16.555072 -14.388164 -3.600036 0.000291 -0.003530 85.722603 6.212332 -5.445937 -2.099998 0.000333 -0.005503 89.424935 3.122778 -2.882428 -2.115770 -0.000042 -0.003677 0.000005 0.000000 0.000001 4.570446 11.014691 -2.160851 -0.000018 0.000010 -0.000021 10.592379 -0.524492 -2.232317 73.039919 -4.534902 3.358981 27.841816 0.000060 -0.000199 93.939731 -71.756506 75.539194 28.328838 -0.000028 0.000025 0.000021 -0.000089 0.000000 2.466240 -1.575903 2.681789 -161.285300 -8.500203 43.994054 3.217861 -1.871913 1.916476 165.961753 -12.830829 66.890112 2.656093 -1.528702 1.514527 138.978162 -27.232934 69.812217 2.020906 -1.154072 1.115143 0.000001 0.000001 0.000002 9.109378 -0.517871 2.259748 85.301447 -22.518031 20.771351 3.700044 0.000155 -0.000475 84.449941 -13.706137 12.464813 2.850031 0.000200 0.000189 84.588806 -9.591281 8.728053 2.774892 -0.000030 -0.000022 0.000001 -0.000002 0.000001 9.533462 0.000175 -0.000071 79.781152 -21.641036 18.145542 3.700037 0.000198 -0.000385 85.812557 -10.358626 9.629070 2.950055 0.000187 -0.000211 88.445977 -8.709346 8.479863 2.952865 -0.000015 0.000063 0.000000 0.000001 0.000000 9.104591 -0.042880 -1.865210 78.616174 -20.671414 16.986433 3.150043 0.000194 -0.000097 86.801930 -12.347567 11.683406 2.950003 0.000193 -0.000097 88.456537 -8.776340 8.545576 2.644328 0.000029 0.000061 0.000001 -0.000003 -0.000001 8.077835 -0.486757 -3.806377 68.692736 -20.571459 14.567882 3.600013 0.000152 0.014592 74.923726 -16.653680 13.208188 2.100042 0.000189 0.007557 81.330648 -11.530389 10.327740 2.125510 0.000001 0.007511 0.000001 -0.000000 -0.000003 -8.207786 -6.751667 -1.599560 -0.077001 -0.000003 0.000080 -0.000002 -44.370110 0.345938 0.153719 -0.000000 -0.000000 0.000000 -44.423679 -3.043532 -0.076700 0.000000 -0.000002 -0.000006 -8.728667 10.710559 -0.000009 -0.000000 -0.000000 -0.000001 -0.000679 9.278123 0.000000 -0.000000 -0.000000 8.207792 -6.751710 -1.599556 -0.074518 -0.000003 0.000081 -0.000002 -44.370014 0.346960 0.148822 0.000002 0.000000 -0.000001 -44.423664 -3.044403 -0.074314 0.000000 -0.000002 -0.000004 -8.728671 10.710558 0.000007 -0.000000 -0.000000 0.000000 -0.000680 9.278137 -0.000000 0.000000 -0.000001 
0.000006 104.270477 1.554256 0.000010 0.000003 -0.000113 -0.000005 10.181587 0.131522 0.000001 -0.000003 0.000084 -0.000000 9.893967 -1.470711 0.000001 0.000000 -0.000000 -0.000000 9.220802 -1.370642 0.000000 -0.000000 -0.000000 0.000001 16.740433 -2.049030 0.000000 -0.000000 -0.000000 0.000000 9.617859 1.685014 0.000000 0.000000 0.000000 0.000002 22.037384 7.501101 0.000000 -0.000000 0.000000 -4.569968 11.014880 -2.160881 0.000008 0.000001 -0.000038 -10.592870 -0.524774 -2.231899 76.368400 32.133410 -25.525387 -27.841537 0.000015 0.000535 -58.210779 105.880957 72.794667 -28.328825 0.000019 0.000023 -0.000323 -0.000044 0.000006 -2.464422 -1.573781 2.682337 -45.767779 -164.352656 -4.310199 -3.215276 -1.872580 1.924639 153.884449 32.356505 9.153000 -2.654941 -1.527863 1.513080 146.687998 27.066909 -36.254385 -2.018830 -1.151996 1.108058 -0.000004 -0.000003 0.000000 -9.108365 -0.517561 2.260118 99.199127 15.643292 -18.391698 -3.700054 0.000318 0.001514 96.482658 13.410582 -14.977007 -2.850093 0.000373 -0.000277 94.515174 10.534578 -11.392797 -2.772157 -0.000015 -0.000020 -0.000001 0.000000 0.000001 -9.532582 0.000268 0.000213 89.406985 14.940207 -14.927510 -3.700056 0.000323 0.003951 88.724793 11.683936 -11.336271 -2.950055 0.000345 -0.001812 89.496720 10.823358 -10.722285 -2.946623 0.000015 -0.000154 0.000002 0.000000 -0.000001 -9.103703 -0.042763 -1.864903 87.204147 17.198249 -16.347610 -3.379322 0.000317 -0.000828 88.221852 8.537164 -8.293752 -2.889737 0.000373 0.000622 93.295753 5.184156 -5.537867 -2.638794 -0.000015 0.000939 0.000001 -0.000000 0.000000 -8.076742 -0.486387 -3.806042 82.617845 16.778541 -14.636061 -3.600041 0.000292 -0.003556 85.629877 6.355637 -5.569283 -2.099982 0.000327 -0.005513 89.291398 2.914634 -2.670807 -2.115765 -0.000043 -0.003684 0.000002 0.000002 0.000001 4.570446 11.014691 -2.160851 -0.000018 0.000010 -0.000021 10.592383 -0.524495 -2.232340 70.839744 -5.667025 4.032017 27.841810 0.000052 -0.000188 91.119942 -73.189165 74.264421 28.328800 -0.000029 0.000025 0.000020 -0.000089 0.000000 2.466166 -1.575813 2.681791 -156.903638 -29.034219 12.585018 3.217688 -1.872037 1.916596 148.172553 -5.741720 129.247656 2.656062 -1.528761 1.514605 138.940856 -26.386921 89.413228 2.020903 -1.154049 1.115149 0.000001 0.000006 0.000001 9.109396 -0.517859 2.259752 92.153882 -23.432730 24.290779 3.700078 0.000193 -0.000457 98.371622 -17.320641 20.024866 2.850055 0.000228 0.000204 98.392174 -11.286133 13.057438 2.774867 -0.000043 -0.000017 0.000004 -0.000002 0.000002 9.533475 0.000218 -0.000079 91.429151 -19.855703 20.337518 3.700057 0.000206 -0.000357 98.298266 -11.508084 13.290236 2.950040 0.000225 -0.000198 100.241926 -8.607425 10.297020 2.952862 -0.000013 0.000068 0.000007 -0.000001 -0.000002 9.104586 -0.042847 -1.865202 88.261228 -16.868561 16.373104 3.150045 0.000229 -0.000084 97.345475 -10.082921 11.459510 2.950014 0.000223 -0.000074 102.224935 -7.244164 8.977428 2.644318 0.000032 0.000063 0.000001 0.000001 -0.000000 8.077843 -0.486715 -3.806388 79.900953 -16.720004 14.531195 3.600004 0.000247 0.014562 95.483121 -11.141704 12.800631 2.100026 0.000277 0.007555 106.576960 -7.231447 10.298239 2.125500 -0.000001 0.007514 0.000001 0.000002 -0.000002 -8.207786 -6.751667 -1.599560 -0.077001 -0.000003 0.000080 -0.000002 -44.370110 0.345938 0.153719 -0.000000 -0.000000 0.000000 -44.423679 -3.043532 -0.076700 0.000000 -0.000002 -0.000006 -8.728667 10.710559 -0.000009 -0.000000 -0.000000 -0.000001 -0.000679 9.278123 0.000000 -0.000000 -0.000000 8.207792 -6.751710 -1.599556 -0.074518 -0.000003 0.000081 -0.000002 -44.370014 0.346960 0.148822 0.000002 0.000000 -0.000001 -44.423664 -3.044403 -0.074314 0.000000 -0.000002 -0.000004 -8.728671 10.710558 0.000007 -0.000000 -0.000000 0.000000 -0.000680 9.278137 -0.000000 0.000000 -0.000001 
